<svg width="256" height="64" xmlns="http://www.w3.org/2000/svg" xmlns:xlink="http://www.w3.org/1999/xlink">
  <defs/>
  <g>
    <path stroke="none" fill="#8E3F38" d="M59.8 51.85 L58.15 60 57.5 61.2 56.8 61.6 56.35 61.65 19.7 64 18.7 63.8 18.35 63.6 Q17.75 63.15 17.6 62.45 L15.7 53.75 Q11.15 52 7.2 49.95 L4.15 48.3 4.15 48.35 1.5 46.7 1 46.5 0.25 45.7 0 44.65 1.25 5.05 1.25 4.95 Q1.4 2.8 2.75 1.7 L2.95 1.5 Q4.55 -0.3 8.35 0.05 67.6 6.5 126.8 6.35 L127.35 6.35 127.9 6.35 129 6.35 130.15 6.35 130.7 6.35 131.1 6.35 131.15 6.35 133.05 6.35 Q190.35 6.3 247.65 0.05 L247.7 0.05 Q251.35 -0.3 253.1 1.4 L253.35 1.65 Q254.5 2.75 254.8 4.85 L254.8 5.05 256 44.65 255.75 45.75 255.05 46.5 254.5 46.7 252 48.3 248.95 49.9 Q244.9 52 240.3 53.75 L238.35 62.45 Q238.2 63.15 237.65 63.6 L237.35 63.8 236.35 64 199.65 61.65 199.25 61.6 198.5 61.15 Q198 60.65 197.85 60 L196.25 51.85 Q164.65 53.65 133.05 53.75 L130.7 53.75 130.15 53.75 129 53.75 127.9 53.75 127.35 53.75 126.8 53.75 Q93.4 53.75 59.8 51.85 M251.8 2.95 Q250.6 1.85 247.85 2.1 190.45 8.35 133.05 8.4 L131.15 8.4 131.1 8.4 130.7 8.4 130.15 8.4 129 8.4 127.9 8.4 127.35 8.4 126.8 8.4 Q67.5 8.55 8.15 2.1 5.45 1.85 4.25 2.95 3.35 3.7 3.25 5.1 L1.95 44.7 2.2 44.75 5.05 46.5 Q8.2 48.3 11.8 49.95 L17.35 52.25 19.55 62 48.7 60.05 56.2 59.6 57.75 52.1 58.25 49.7 62 49.95 Q94.45 51.75 126.8 51.75 L127.35 51.75 127.9 51.75 129 51.75 130.15 51.75 130.7 51.75 133.05 51.75 Q163.55 51.65 194 49.95 L197.8 49.7 198.3 52.1 199.75 59.6 207.4 60.05 236.45 62 238.6 52.25 244.3 49.9 Q247.8 48.3 251 46.5 L253.8 44.75 254 44.7 252.85 5.1 Q252.65 3.7 251.8 2.95"/>
    <path stroke="none" fill="#FF7366" d="M251.8 2.95 L249.3 3.25 Q191.2 11.2 133.05 11.45 L131.15 11.45 131.1 11.45 130.7 11.45 130.15 11.45 129 11.45 127.9 11.45 127.35 11.45 126.8 11.45 Q66.75 11.5 6.75 3.25 L4.25 2.95 Q5.45 1.85 8.15 2.1 67.5 8.55 126.8 8.4 L127.35 8.4 127.9 8.4 129 8.4 130.15 8.4 130.7 8.4 131.1 8.4 131.15 8.4 133.05 8.4 Q190.45 8.35 247.85 2.1 250.6 1.85 251.8 2.95 M198.3 52.1 L197.8 49.7 197.85 49.7 198.55 49.7 209.6 49 239.85 46.3 240.1 46.3 249.9 45.25 253.8 44.75 249.3 45.8 239.55 47.65 239.5 47.7 Q218.95 51.3 198.3 52.1 M58.25 49.7 L57.75 52.1 Q37.05 51.3 16.55 47.7 L16.4 47.65 6.85 45.8 2.2 44.75 6.25 45.25 15.85 46.3 16.15 46.3 46.35 49 57.5 49.7 58.25 49.7"/>
    <path stroke="none" fill="#E2665B" d="M58.25 49.7 L57.5 49.7 46.35 49 16.15 46.3 15.85 46.3 6.25 45.25 2.2 44.75 1.95 44.7 3.25 5.1 Q3.35 3.7 4.25 2.95 L6.75 3.25 Q66.75 11.5 126.8 11.45 L127.35 11.45 127.9 11.45 129 11.45 130.15 11.45 130.7 11.45 131.1 11.45 131.15 11.45 133.05 11.45 Q191.2 11.2 249.3 3.25 L251.8 2.95 Q252.65 3.7 252.85 5.1 L254 44.7 253.8 44.75 249.9 45.25 240.1 46.3 239.85 46.3 209.6 49 198.55 49.7 197.85 49.7 197.8 49.7 194 49.95 Q163.55 51.65 133.05 51.75 L130.7 51.75 130.15 51.75 129 51.75 127.9 51.75 127.35 51.75 126.8 51.75 Q94.45 51.75 62 49.95 L58.25 49.7 M248.2 6.15 L248.3 6.15 Q190.65 12.4 133.05 12.45 L131.15 12.45 131.1 12.45 130.7 12.45 130.15 12.45 129 12.45 127.9 12.45 127.35 12.45 126.8 12.45 Q67.35 12.6 7.8 6.15 L7.2 6.05 6.05 41.1 6.65 41.2 6.7 41.2 16 42.25 16.15 42.25 16.55 42.3 46.65 44.9 57.75 45.65 58.25 45.65 58.45 45.65 62.3 45.9 Q94.6 47.65 126.8 47.65 L127.35 47.65 127.9 47.65 129 47.65 130.15 47.65 130.7 47.65 133.05 47.65 Q163.4 47.55 193.7 45.9 L197.6 45.65 197.8 45.65 197.85 45.65 198.3 45.65 209.35 44.9 239.45 42.3 239.85 42.25 239.95 42.25 249.45 41.2 249.5 41.2 250 41.15 248.95 6.05 248.2 6.15 M131.15 14.5 L133.05 14.5 Q190 14.45 247.05 8.35 L247.95 39.35 239.75 40.2 239.25 40.25 209.25 42.9 198.2 43.6 197.85 43.6 197.55 43.6 197.5 43.6 193.6 43.85 Q163.35 45.55 133.05 45.65 L130.7 45.65 130.15 45.65 129 45.65 127.9 45.65 127.35 45.65 126.8 45.65 Q94.7 45.65 62.45 43.85 L58.55 43.6 58.5 43.6 58.25 43.6 58.2 43.6 57.9 43.6 46.8 42.9 16.8 40.25 16.2 40.2 16.15 40.2 8.05 39.35 9.05 8.35 Q67.95 14.65 126.8 14.5 L127.35 14.5 127.9 14.5 129 14.5 130.15 14.5 130.7 14.5 131.1 14.5 131.15 14.5"/>
    <path stroke="none" fill="#FFF1D2" d="M131.15 14.5 L131.1 14.5 130.7 14.5 130.15 14.5 129 14.5 127.9 14.5 127.35 14.5 126.8 14.5 Q67.95 14.65 9.05 8.35 L8.05 39.35 16.15 40.2 16.2 40.2 16.8 40.25 46.8 42.9 57.9 43.6 58.2 43.6 58.25 43.6 58.5 43.6 58.55 43.6 62.45 43.85 Q94.7 45.65 126.8 45.65 L127.35 45.65 127.9 45.65 129 45.65 130.15 45.65 130.7 45.65 133.05 45.65 Q163.35 45.55 193.6 43.85 L197.5 43.6 197.55 43.6 197.85 43.6 198.2 43.6 209.25 42.9 239.25 40.25 239.75 40.2 247.95 39.35 247.05 8.35 Q190 14.45 133.05 14.5 L131.15 14.5 M248.2 6.15 L248.95 6.05 250 41.15 249.5 41.2 249.45 41.2 239.95 42.25 239.85 42.25 239.45 42.3 209.35 44.9 198.3 45.65 197.85 45.65 197.8 45.65 197.6 45.65 193.7 45.9 Q163.4 47.55 133.05 47.65 L130.7 47.65 130.15 47.65 129 47.65 127.9 47.65 127.35 47.65 126.8 47.65 Q94.6 47.65 62.3 45.9 L58.45 45.65 58.25 45.65 57.75 45.65 46.65 44.9 16.55 42.3 16.15 42.25 16 42.25 6.7 41.2 6.65 41.2 6.05 41.1 7.2 6.05 7.8 6.15 Q67.35 12.6 126.8 12.45 L127.35 12.45 127.9 12.45 129 12.45 130.15 12.45 130.7 12.45 131.1 12.45 131.15 12.45 133.05 12.45 Q190.65 12.4 248.3 6.15 L248.2 6.15"/>
    <path stroke="none" fill="#000000" fill-opacity="0.10196078431372549" d="M196.25 51.85 Q164.65 56.1 133.05 56.4 L132.15 56.4 131.1 56.4 130.7 56.4 130.15 56.4 129 56.4 127.9 56.4 127.35 56.4 126.8 56.4 Q93.4 56.4 59.8 51.85 93.4 53.75 126.8 53.75 L127.35 53.75 127.9 53.75 129 53.75 130.15 53.75 130.7 53.75 133.05 53.75 Q164.65 53.65 196.25 51.85"/>
    <path stroke="none" fill="#C6594F" d="M253.8 44.75 L251 46.5 Q247.8 48.3 244.3 49.9 L238.6 52.25 Q232.85 54.35 226.05 56.2 L216.65 58.45 207.4 60.05 199.75 59.6 198.3 52.1 Q218.95 51.3 239.5 47.7 L239.55 47.65 249.3 45.8 253.8 44.75 M57.75 52.1 L56.2 59.6 48.7 60.05 39.45 58.45 29.95 56.2 Q23.2 54.35 17.35 52.25 L11.8 49.95 Q8.2 48.3 5.05 46.5 L2.2 44.75 6.85 45.8 16.4 47.65 16.55 47.7 Q37.05 51.3 57.75 52.1"/>
    <path stroke="none" fill="#AD4D45" d="M238.6 52.25 L236.45 62 207.4 60.05 216.65 58.45 226.05 56.2 Q232.85 54.35 238.6 52.25 M48.7 60.05 L19.55 62 17.35 52.25 Q23.2 54.35 29.95 56.2 L39.45 58.45 48.7 60.05"/>
  </g>
</svg>