<svg width="64" height="64" xmlns="http://www.w3.org/2000/svg" xmlns:xlink="http://www.w3.org/1999/xlink">
  <defs/>
  <g>
    <path stroke="none" fill="#515F6B" d="M56 11.85 Q56 11.15 56.6 10.55 L58 9.15 58 6 54.85 6 53.45 7.4 Q52.85 8 52.15 8 L51.85 8 Q51.15 8 50.6 7.4 L48.6 5.4 Q48 4.85 48 4 L48 2 Q48 1.15 48.6 0.55 49.15 0 50 0 L62 0 Q62.85 0 63.45 0.55 64 1.15 64 2 L64 14 Q64 14.85 63.45 15.4 62.85 16 62 16 L60 16 Q59.15 16 58.6 15.4 L56.6 13.4 Q56 12.85 56 12.15 L56 11.85 M54 4 L58 4 60 6 60 10 58 12 60 14 62 14 62 10 62 2 54 2 50 2 50 4 52 6 54 4 M60 48 L62 48 Q62.85 48 63.45 48.6 64 49.15 64 50 L64 62 Q64 62.85 63.45 63.45 62.85 64 62 64 L50 64 Q49.15 64 48.6 63.45 48 62.85 48 62 L48 60 Q48 59.15 48.6 58.6 L50.6 56.6 Q51.15 56 51.85 56 L52.15 56 Q52.85 56 53.45 56.6 L54.85 58 58 58 58 54.85 56.6 53.45 Q56 52.85 56 52.15 L56 51.85 Q56 51.15 56.6 50.6 L58.6 48.6 Q59.15 48 60 48 M62 54 L62 50 60 50 58 52 60 54 60 58 58 60 54 60 52 58 50 60 50 62 54 62 62 62 62 54 M16 62 Q16 62.85 15.4 63.45 14.85 64 14 64 L2 64 Q1.15 64 0.55 63.45 0 62.85 0 62 L0 50 Q0 49.15 0.55 48.6 1.15 48 2 48 L4 48 Q4.85 48 5.4 48.6 L7.4 50.6 Q8 51.15 8 51.85 L8 52.15 Q8 52.85 7.4 53.45 L6 54.85 6 58 9.15 58 10.55 56.6 Q11.15 56 11.85 56 L12.15 56 Q12.85 56 13.4 56.6 L15.4 58.6 Q16 59.15 16 60 L16 62 M2 16 Q1.15 16 0.55 15.4 0 14.85 0 14 L0 2 Q0 1.15 0.55 0.55 1.15 0 2 0 L14 0 Q14.85 0 15.4 0.55 16 1.15 16 2 L16 4 Q16 4.85 15.4 5.4 L13.4 7.4 Q12.85 8 12.15 8 L11.85 8 Q11.15 8 10.55 7.4 L9.15 6 6 6 6 9.15 7.4 10.55 Q8 11.15 8 11.85 L8 12.15 Q8 12.85 7.4 13.4 L5.4 15.4 Q4.85 16 4 16 L2 16 M10 4 L12 6 14 4 14 2 10 2 2 2 2 10 2 14 4 14 6 12 4 10 4 6 6 4 10 4 M4 54 L6 52 4 50 2 50 2 54 2 62 10 62 14 62 14 60 12 58 10 60 6 60 4 58 4 54"/>
    <path stroke="none" fill="#B47B41" d="M52.15 8 Q52.85 8 53.45 7.4 L54.85 6 58 6 58 9.15 56.6 10.55 Q56 11.15 56 11.85 L56 8 52.15 8 M56 12.15 Q56 12.85 56.6 13.4 L58.6 15.4 Q59.15 16 60 16 L58 18 60 20 60 48 Q59.15 48 58.6 48.6 L56.6 50.6 Q56 51.15 56 51.85 L56 12.15 M48 4 Q48 4.85 48.6 5.4 L50.6 7.4 Q51.15 8 51.85 8 L12.15 8 Q12.85 8 13.4 7.4 L15.4 5.4 Q16 4.85 16 4 L18 6 20 4 24 4 25 5 26 4 48 4 M56 52.15 Q56 52.85 56.6 53.45 L58 54.85 58 58 54.85 58 53.45 56.6 Q52.85 56 52.15 56 L56 56 56 52.15 M51.85 56 Q51.15 56 50.6 56.6 L48.6 58.6 Q48 59.15 48 60 L46 60 44 58 42 60 16 60 Q16 59.15 15.4 58.6 L13.4 56.6 Q12.85 56 12.15 56 L51.85 56 M8 11.85 Q8 11.15 7.4 10.55 L6 9.15 6 6 9.15 6 10.55 7.4 Q11.15 8 11.85 8 L8 8 8 11.85 M4 16 Q4.85 16 5.4 15.4 L7.4 13.4 Q8 12.85 8 12.15 L8 51.85 Q8 51.15 7.4 50.6 L5.4 48.6 Q4.85 48 4 48 L4 44 5 43 4 42 4 16 M11.85 56 Q11.15 56 10.55 56.6 L9.15 58 6 58 6 54.85 7.4 53.45 Q8 52.85 8 52.15 L8 56 11.85 56"/>
    <path stroke="none" fill="#94AFC6" d="M60 10 L60 6 58 4 54 4 54 2 62 2 62 10 60 10 M62 54 L62 62 54 62 54 60 58 60 60 58 60 54 62 54 M10 4 L6 4 4 6 4 10 2 10 2 2 10 2 10 4 M2 54 L4 54 4 58 6 60 10 60 10 62 2 62 2 54"/>
    <path stroke="none" fill="#778D9F" d="M2 54 L2 50 4 50 6 52 4 54 2 54 M60 10 L62 10 62 14 60 14 58 12 60 10 M54 2 L54 4 52 6 50 4 50 2 54 2 M60 54 L58 52 60 50 62 50 62 54 60 54 M54 62 L50 62 50 60 52 58 54 60 54 62 M10 2 L14 2 14 4 12 6 10 4 10 2 M4 10 L6 12 4 14 2 14 2 10 4 10 M10 60 L12 58 14 60 14 62 10 62 10 60"/>
    <path stroke="none" fill="#6D4B27" d="M60 16 L62 16 60 18 62 20 62 48 60 48 60 20 58 18 60 16 M48 2 L48 4 26 4 25 5 24 4 20 4 18 6 16 4 16 2 18 4 20 2 24 2 25 3 26 2 48 2 M48 60 L48 62 46 62 44 60 42 62 16 62 16 60 42 60 44 58 46 60 48 60 M2 48 L2 44 3 43 2 42 2 16 4 16 4 42 5 43 4 44 4 48 2 48"/>
    <path stroke="none" fill="#A3703A" d="M56 11.85 L56 12.15 56 51.85 56 52.15 56 56 52.15 56 51.85 56 12.15 56 11.85 56 8 56 8 52.15 8 51.85 8 12.15 8 11.85 8 8 11.85 8 12.15 8 51.85 8 52.15 8 56 8 56 11.85 M52 10 L40 10 38 12 36 10 12 10 10 10 10 12 10 20 11 21 10 22 10 52 10 54 12 54 52 54 54 54 54 52 54 40 53 39 54 38 54 12 54 10 52 10"/>
    <path stroke="none" fill="#FFF1D2" d="M52 10 L54 12 54 38 53 39 54 40 54 52 52 54 12 54 10 52 10 22 11 21 10 20 10 12 12 10 36 10 38 12 40 10 52 10"/>
    <path stroke="none" fill="#D2C6AC" d="M52 10 L54 10 54 12 52 10 M54 52 L54 54 52 54 54 52 M12 54 L10 54 10 52 12 54 M10 12 L10 10 12 10 10 12"/>
  </g>
</svg>