<svg width="64" height="64" xmlns="http://www.w3.org/2000/svg" xmlns:xlink="http://www.w3.org/1999/xlink">
  <defs/>
  <g>
    <path stroke="none" fill="#6D4B27" d="M2 5 L2 59 Q2 62 5 62 L59 62 Q62 62 62 59 L62 5 Q62 2 59 2 L5 2 Q2 2 2 5 M5 0 L59 0 Q64 0 64 5 L64 59 Q64 64 59 64 L5 64 Q0 64 0 59 L0 5 Q0 0 5 0"/>
    <path stroke="none" fill="#B47B41" d="M2 5 Q2 2 5 2 L59 2 Q62 2 62 5 L62 59 Q62 62 59 62 L5 62 Q2 62 2 59 L2 5 M6 58 L58 58 58 6 6 6 6 58"/>
    <path stroke="none" fill="#A3703A" d="M6 58 L6 6 58 6 58 58 6 58"/>
  </g>
</svg>