<svg width="64" height="64" xmlns="http://www.w3.org/2000/svg" xmlns:xlink="http://www.w3.org/1999/xlink">
  <defs/>
  <g>
    <path stroke="none" fill="#515F6B" d="M5 0 L59 0 Q64 0 64 5 L64 59 Q64 64 59 64 L5 64 Q0 64 0 59 L0 5 Q0 0 5 0 M2 5 L2 59 Q2 62 5 62 L59 62 Q62 62 62 59 L62 5 Q62 2 59 2 L5 2 Q2 2 2 5"/>
    <path stroke="none" fill="#778D9F" d="M2 5 Q2 2 5 2 L59 2 Q62 2 62 5 L62 59 Q62 62 59 62 L5 62 Q2 62 2 59 L2 5 M52 9 L51.7 9.7 Q51.4 10 51 10 L50.3 9.7 Q50 9.4 50 9 50 8.6 50.3 8.3 50.6 8 51 8 51.4 8 51.7 8.3 L52 9 M56 9 L55.7 9.7 Q55.4 10 55 10 L54.3 9.7 Q54 9.4 54 9 54 8.6 54.3 8.3 54.6 8 55 8 55.4 8 55.7 8.3 L56 9 M56 13 L55.7 13.7 Q55.4 14 55 14 L54.3 13.7 Q54 13.4 54 13 54 12.6 54.3 12.3 54.6 12 55 12 55.4 12 55.7 12.3 L56 13 M56 51 L55.7 51.7 Q55.4 52 55 52 L54.3 51.7 Q54 51.4 54 51 54 50.6 54.3 50.3 54.6 50 55 50 55.4 50 55.7 50.3 L56 51 M56 55 L55.7 55.7 Q55.4 56 55 56 L54.3 55.7 Q54 55.4 54 55 54 54.6 54.3 54.3 54.6 54 55 54 55.4 54 55.7 54.3 L56 55 M52 55 L51.7 55.7 Q51.4 56 51 56 L50.3 55.7 Q50 55.4 50 55 50 54.6 50.3 54.3 50.6 54 51 54 51.4 54 51.7 54.3 L52 55 M6 58 L58 58 58 6 6 6 6 58 M10 9 L9.7 9.7 Q9.4 10 9 10 L8.3 9.7 Q8 9.4 8 9 8 8.6 8.3 8.3 8.6 8 9 8 9.4 8 9.7 8.3 L10 9 M10 13 L9.7 13.7 Q9.4 14 9 14 L8.3 13.7 Q8 13.4 8 13 8 12.6 8.3 12.3 8.6 12 9 12 9.4 12 9.7 12.3 L10 13 M14 9 L13.7 9.7 Q13.4 10 13 10 L12.3 9.7 Q12 9.4 12 9 12 8.6 12.3 8.3 12.6 8 13 8 13.4 8 13.7 8.3 L14 9 M14 55 L13.7 55.7 Q13.4 56 13 56 L12.3 55.7 Q12 55.4 12 55 12 54.6 12.3 54.3 12.6 54 13 54 13.4 54 13.7 54.3 L14 55 M10 51 L9.7 51.7 Q9.4 52 9 52 L8.3 51.7 Q8 51.4 8 51 8 50.6 8.3 50.3 8.6 50 9 50 9.4 50 9.7 50.3 L10 51 M10 55 L9.7 55.7 Q9.4 56 9 56 L8.3 55.7 Q8 55.4 8 55 8 54.6 8.3 54.3 8.6 54 9 54 9.4 54 9.7 54.3 L10 55"/>
    <path stroke="none" fill="#647685" d="M10 55 L9.7 54.3 Q9.4 54 9 54 8.6 54 8.3 54.3 8 54.6 8 55 8 55.4 8.3 55.7 L9 56 Q9.4 56 9.7 55.7 L10 55 M52 55 L51.7 54.3 Q51.4 54 51 54 50.6 54 50.3 54.3 50 54.6 50 55 50 55.4 50.3 55.7 L51 56 Q51.4 56 51.7 55.7 L52 55 M56 55 L55.7 54.3 Q55.4 54 55 54 54.6 54 54.3 54.3 54 54.6 54 55 54 55.4 54.3 55.7 L55 56 Q55.4 56 55.7 55.7 L56 55 M56 51 L55.7 50.3 Q55.4 50 55 50 54.6 50 54.3 50.3 54 50.6 54 51 54 51.4 54.3 51.7 L55 52 Q55.4 52 55.7 51.7 L56 51 M56 13 L55.7 12.3 Q55.4 12 55 12 54.6 12 54.3 12.3 54 12.6 54 13 54 13.4 54.3 13.7 L55 14 Q55.4 14 55.7 13.7 L56 13 M56 9 L55.7 8.3 Q55.4 8 55 8 54.6 8 54.3 8.3 54 8.6 54 9 54 9.4 54.3 9.7 L55 10 Q55.4 10 55.7 9.7 L56 9 M52 9 L51.7 8.3 Q51.4 8 51 8 50.6 8 50.3 8.3 50 8.6 50 9 50 9.4 50.3 9.7 L51 10 Q51.4 10 51.7 9.7 L52 9 M6 58 L6 6 58 6 58 58 6 58 M10 51 L9.7 50.3 Q9.4 50 9 50 8.6 50 8.3 50.3 8 50.6 8 51 8 51.4 8.3 51.7 L9 52 Q9.4 52 9.7 51.7 L10 51 M14 55 L13.7 54.3 Q13.4 54 13 54 12.6 54 12.3 54.3 12 54.6 12 55 12 55.4 12.3 55.7 L13 56 Q13.4 56 13.7 55.7 L14 55 M14 9 L13.7 8.3 Q13.4 8 13 8 12.6 8 12.3 8.3 12 8.6 12 9 12 9.4 12.3 9.7 L13 10 Q13.4 10 13.7 9.7 L14 9 M10 13 L9.7 12.3 Q9.4 12 9 12 8.6 12 8.3 12.3 8 12.6 8 13 8 13.4 8.3 13.7 L9 14 Q9.4 14 9.7 13.7 L10 13 M10 9 L9.7 8.3 Q9.4 8 9 8 8.6 8 8.3 8.3 8 8.6 8 9 8 9.4 8.3 9.7 L9 10 Q9.4 10 9.7 9.7 L10 9"/>
  </g>
</svg>